<svg width="72" height="120" viewBox="0 0 72 120" fill="none" xmlns="http://www.w3.org/2000/svg">
<path d="M57.198 95.2419C57.9962 88.0748 54.5732 80.2248 47.6048 73.4156C47.4422 73.2567 47.2797 73.0997 47.1171 72.9427C44.2959 70.273 40.8899 67.6728 36.4006 64.7567C33.9194 63.1461 31.3327 61.5812 28.8304 60.0675C27.0777 59.0084 25.2681 57.9128 23.5133 56.8135C16.0572 52.1407 7.86194 46.2756 3.63446 38.1973C0.122829 31.4904 -0.272045 23.6586 2.54909 16.7106C5.20551 10.1662 10.6577 4.55306 17.6261 1.13477C17.4551 2.10255 17.4318 3.09408 17.5543 4.09656L17.3706 4.02534L17.7612 5.25973C17.9449 6.04856 18.2195 6.85201 18.5763 7.6518C19.989 10.8017 22.7869 14.1086 26.894 17.4812C31.3305 21.1223 37.5134 25.1979 42.9698 28.7915C44.4965 29.7977 45.9367 30.7472 47.2606 31.6346C54.2544 36.3275 59.5081 39.9722 63.4674 44.1647C67.7878 48.7407 70.176 53.7075 70.9848 59.7917C70.989 59.8301 71.0122 59.9743 71.0164 60.0109C71.5507 64.2417 71.3353 68.5748 70.3745 72.8897C68.4994 81.3204 63.8475 89.1887 57.198 95.2401V95.2419Z" fill="url(#paint0_linear_2347_213)"/>
<path d="M57.6632 63.5263C33.426 43.2795 22.1499 15.5771 19.2232 7.43488C18.8832 6.67526 18.6172 5.90469 18.4356 5.12315C18.4292 5.10672 18.4271 5.09394 18.4271 5.09394H18.4292C18.0491 3.42861 18.0618 1.71764 18.615 -0.00976562C18.615 -0.00976562 -6.87649 23.8416 35.9937 65.2409C35.9937 65.2409 35.9874 65.2373 35.9811 65.2355C39.7735 67.6987 43.4034 70.3191 46.6025 73.3466C46.7651 73.5 46.9235 73.6552 47.084 73.8122C48.8366 69.0719 52.7474 65.7833 57.6632 63.5245V63.5263Z" fill="url(#paint1_linear_2347_213)"/>
<path d="M47.6862 31.1619C41.6491 27.1118 33.0231 21.6849 27.3724 17.0468C24.0466 14.3169 20.8285 11.0155 19.2236 7.43652C22.1503 15.5787 33.4243 43.2811 57.6637 63.528C61.8447 61.6052 66.7521 60.4256 71.6743 59.7262C69.9005 46.3799 60.9937 40.0911 47.6862 31.1619Z" fill="url(#paint2_linear_2347_213)"/>
<path d="M18.6156 -0.0078125C10.8871 3.3904 4.76549 9.43632 1.89157 16.5121C-0.98235 23.5879 -0.574807 31.6151 3.00018 38.4462C7.12418 46.3254 15.0069 52.2271 23.105 57.3016C27.3641 59.9694 31.7732 62.5075 35.9817 65.2392C35.988 65.2411 35.9943 65.2447 35.9943 65.2447C-6.8759 23.8436 18.6156 -0.0078125 18.6156 -0.0078125Z" fill="url(#paint3_linear_2347_213)"/>
<path d="M56.2187 96.9479C63.8797 90.5568 69.0468 82.0348 71.0571 73.0052C66.2088 70.1438 61.7533 66.9428 57.6652 63.5264C52.7493 65.787 48.8386 69.0738 47.0859 73.8141C53.5729 80.1522 58.0157 88.6505 56.2187 96.9479Z" fill="url(#paint4_linear_2347_213)"/>
<path d="M71.056 73.0053C72.0104 68.7105 72.2554 64.3007 71.7064 59.9493C71.6958 59.8745 71.6831 59.8014 71.6747 59.7266C66.7525 60.4259 61.8472 61.6055 57.6641 63.5283C61.7522 66.943 66.2098 70.1458 71.056 73.0071V73.0053Z" fill="url(#paint5_linear_2347_213)"/>
<path d="M34.793 68.6531C25.0014 62.4063 15.6891 58.579 5.39496 47.6631C3.57474 52.6207 2.7322 57.9381 2.9687 63.1787C10.0912 61.612 22.1739 60.8743 34.7951 68.6531H34.793Z" fill="url(#paint6_linear_2347_213)"/>
<path d="M38.9172 116.568C38.7779 117.748 38.4252 118.896 37.7769 119.99C43.0813 114.39 47.879 108.254 50.2419 101.31C52.6048 94.3656 52.2754 86.4791 47.8346 80.3419C46.7345 78.8226 45.4189 77.3271 43.9725 75.8937C43.208 75.1469 42.4436 74.4384 41.6771 73.7646C41.58 73.6806 41.485 73.5929 41.3857 73.5089C41.3773 73.5016 41.3688 73.4943 41.3604 73.487C39.4409 71.8436 37.3947 70.3298 35.3676 69.0206C35.1754 68.8964 34.9854 68.7759 34.7932 68.6536C22.1741 60.8748 10.0914 61.6125 2.9668 63.1792C39.8527 89.3094 40.5199 108.976 38.9172 116.568Z" fill="url(#paint7_linear_2347_213)"/>
<path d="M2.96696 63.1786C2.96696 63.1786 19.2075 75.3617 30.7454 98.6105C33.8051 101.16 36.1723 104.291 37.3505 107.742C38.3346 110.624 39.2595 113.684 38.9153 116.566C40.518 108.975 39.8507 89.3088 2.96484 63.1768L2.96696 63.1786Z" fill="url(#paint8_linear_2347_213)"/>
<path d="M2.9668 63.1787C3.37645 72.2832 7.04223 81.1521 14.5005 87.4884C17.9931 90.4557 25.5717 94.776 29.3178 97.4986C29.8077 97.8547 30.2849 98.2272 30.7452 98.6125C19.2073 75.3619 2.9668 63.1787 2.9668 63.1787Z" fill="url(#paint9_linear_2347_213)"/>
<defs>
<linearGradient id="paint0_linear_2347_213" x1="35.993" y1="95.2419" x2="35.993" y2="1.13477" gradientUnits="userSpaceOnUse">
<stop stop-color="#00ABC5"/>
<stop offset="0.44" stop-color="#00929E"/>
<stop offset="1" stop-color="#007B8D"/>
</linearGradient>
<linearGradient id="paint1_linear_2347_213" x1="-0.00526409" y1="36.9031" x2="71.9948" y2="36.9031" gradientUnits="userSpaceOnUse">
<stop stop-color="#007B8D"/>
<stop offset="0.56" stop-color="#00929E"/>
<stop offset="1" stop-color="#00ABC5"/>
</linearGradient>
<linearGradient id="paint2_linear_2347_213" x1="35.3374" y1="38.6285" x2="53.1738" y2="26.7198" gradientUnits="userSpaceOnUse">
<stop stop-color="#007B8D"/>
<stop offset="0.21" stop-color="#008393"/>
<stop offset="0.42" stop-color="#00929E"/>
<stop offset="1" stop-color="#00AAB5"/>
</linearGradient>
<linearGradient id="paint3_linear_2347_213" x1="6.0008" y1="43.2321" x2="34.6939" y2="24.0743" gradientUnits="userSpaceOnUse">
<stop stop-color="#007B8D"/>
<stop offset="0.39" stop-color="#00929E"/>
<stop offset="1" stop-color="#6AC9C8"/>
</linearGradient>
<linearGradient id="paint4_linear_2347_213" x1="59.0694" y1="96.9479" x2="59.0694" y2="63.5264" gradientUnits="userSpaceOnUse">
<stop stop-color="#B1DED3"/>
<stop offset="0.44" stop-color="#00B3B5"/>
<stop offset="1" stop-color="#007B8D"/>
</linearGradient>
<linearGradient id="paint5_linear_2347_213" x1="64.8309" y1="73.0053" x2="64.8309" y2="59.7247" gradientUnits="userSpaceOnUse">
<stop stop-color="#00ABC5"/>
<stop offset="0.44" stop-color="#00929E"/>
<stop offset="1" stop-color="#007B8D"/>
</linearGradient>
<linearGradient id="paint6_linear_2347_213" x1="2.92858" y1="58.159" x2="34.793" y2="58.159" gradientUnits="userSpaceOnUse">
<stop stop-color="#FFCB05"/>
<stop offset="0.61" stop-color="#F37021"/>
<stop offset="1" stop-color="#F04E23"/>
</linearGradient>
<linearGradient id="paint7_linear_2347_213" x1="2.9668" y1="91.0788" x2="51.6947" y2="91.0788" gradientUnits="userSpaceOnUse">
<stop stop-color="#F04E23"/>
<stop offset="0.39" stop-color="#F37021"/>
<stop offset="1" stop-color="#FBB040"/>
</linearGradient>
<linearGradient id="paint8_linear_2347_213" x1="2.96696" y1="89.873" x2="39.3735" y2="89.873" gradientUnits="userSpaceOnUse">
<stop stop-color="#F04E23"/>
<stop offset="0.39" stop-color="#F37021"/>
<stop offset="1" stop-color="#FFD400"/>
</linearGradient>
<linearGradient id="paint9_linear_2347_213" x1="16.8571" y1="98.6125" x2="16.8571" y2="63.1787" gradientUnits="userSpaceOnUse">
<stop stop-color="#F04E23"/>
<stop offset="0.39" stop-color="#F37021"/>
<stop offset="1" stop-color="#FBB040"/>
</linearGradient>
</defs>
</svg>
